<svg width="25" height="24" viewBox="0 0 25 24" fill="none" xmlns="http://www.w3.org/2000/svg">
<path d="M23.2819 0.203369H1.71939C1.20084 0.203369 0.781891 0.622314 0.781891 1.14087V22.7034C0.781891 23.2219 1.20084 23.6409 1.71939 23.6409H23.2819C23.8004 23.6409 24.2194 23.2219 24.2194 22.7034V1.14087C24.2194 0.622314 23.8004 0.203369 23.2819 0.203369ZM20.5749 7.04419H18.7028C17.235 7.04419 16.9508 7.74145 16.9508 8.76685V11.0256H20.4547L19.9977 14.5618H16.9508V23.6409H13.2975V14.5647H10.2419V11.0256H13.2975V8.41821C13.2975 5.39185 15.1461 3.74243 17.8473 3.74243C19.1422 3.74243 20.2526 3.83911 20.5778 3.88306V7.04419H20.5749Z" fill="#FE6900"/>
</svg>
