<svg width="30" height="31" viewBox="0 0 30 31" fill="none" xmlns="http://www.w3.org/2000/svg">
<path d="M25.7819 3.29443H4.21936C3.70081 3.29443 3.28186 3.71338 3.28186 4.23193V25.7944C3.28186 26.313 3.70081 26.7319 4.21936 26.7319H25.7819C26.3004 26.7319 26.7194 26.313 26.7194 25.7944V4.23193C26.7194 3.71338 26.3004 3.29443 25.7819 3.29443ZM23.0748 10.1353H21.2028C19.735 10.1353 19.4508 10.8325 19.4508 11.8579V14.1167H22.9547L22.4977 17.6528H19.4508V26.7319H15.7975V17.6558H12.7418V14.1167H15.7975V11.5093C15.7975 8.48291 17.6461 6.8335 20.3473 6.8335C21.6422 6.8335 22.7526 6.93018 23.0778 6.97412V10.1353H23.0748Z" fill="white"/>
</svg>
