<svg width="678" height="515" viewBox="0 0 678 515" fill="none" xmlns="http://www.w3.org/2000/svg">
<g clip-path="url(#clip0_1_551)">
<path d="M364.713 514.33C500.998 514.33 611.479 482.712 611.479 443.711C611.479 404.709 500.998 373.092 364.713 373.092C228.428 373.092 117.947 404.709 117.947 443.711C117.947 482.712 228.428 514.33 364.713 514.33Z" fill="#F5F5F5"/>
<path d="M599.494 168.996C599.494 168.996 555.781 212.78 580.457 277.749C605.134 342.718 538.155 450.765 538.155 450.765C538.155 450.765 538.86 450.659 540.206 450.426C629.987 434.551 674.595 331.702 624.671 255.299C606.135 226.896 590.871 193.571 599.494 168.996Z" fill="#FE6900"/>
<path d="M599.494 168.996C599.494 168.996 574.817 222.666 599.494 266.45C624.17 310.234 603.724 433.111 538.155 450.765" stroke="#535461" stroke-width="2" stroke-miterlimit="10"/>
<path d="M677.345 346.087C677.345 346.087 627.463 338.128 622.915 382.908C618.368 427.687 527.029 433.888 527.029 433.888C527.029 433.888 527.621 434.297 528.742 435.032C604.182 484.634 676.301 466.626 665.437 400.76C661.369 376.277 661.693 351.68 677.345 346.087Z" fill="#CF5A07"/>
<path opacity="0.2" d="M677.345 346.087C677.345 346.087 627.463 338.128 622.915 382.908C618.368 427.687 527.029 433.888 527.029 433.888C527.029 433.888 527.621 434.297 528.742 435.032C604.182 484.634 676.301 466.626 665.437 400.76C661.369 376.277 661.693 351.68 677.345 346.087Z" fill="#A83535"/>
<path d="M677.345 346.087C677.345 346.087 638.624 354.604 641.803 389.871C644.983 425.138 584.279 467.396 527.001 433.873" stroke="#535461" stroke-width="2" stroke-miterlimit="10"/>
<path opacity="0.2" d="M107.244 0.385982C101.561 0.188249 95.7377 0.385982 90.4076 2.37744C75.9047 7.79391 69.0305 25.5122 71.2655 40.8577C73.5005 56.2032 82.6943 69.529 92.2336 81.739C101.773 93.949 112.109 106.004 117.34 120.579C119.949 127.86 121.169 136.017 118.518 143.283C114.429 154.491 102.097 160.755 90.2595 162.054C78.4217 163.353 66.5347 160.818 54.6546 159.935C49.6699 159.582 44.5443 159.54 39.8486 161.178C34.6947 162.965 30.401 166.609 26.4528 170.408C11.0475 185.309 -1.28379 205.647 0.711494 227.002C2.96764 251.21 23.0897 270.348 45.1294 280.609C52.4267 284.013 60.1469 286.767 66.5699 291.626C83.491 304.436 87.2912 328.439 85.6062 349.632C83.9211 370.825 78.182 392.039 81.3759 413.048C85.1338 437.482 101.766 459.55 124.2 469.861C144.189 479.041 169.204 478.469 186.95 465.482C195.601 459.127 202.143 450.363 207.833 441.274C216.421 427.563 223.389 412.898 228.597 397.575C231.071 390.294 233.398 382.463 239.172 377.399C242.698 374.285 247.266 372.541 251.786 371.185C265.407 367.103 279.755 365.98 293.503 362.35C307.252 358.721 321.085 351.955 328.558 339.858C339.134 322.691 334.199 300.735 334.248 280.538C334.333 234.523 361.822 193.324 371.968 148.481C375.282 133.82 376.516 117.599 369.113 104.528C364.079 95.6086 355.597 89.2529 346.678 84.3095C327.078 73.406 304.798 68.5545 282.878 63.83C252.413 57.2766 215.419 56.4292 191.807 35.2294C169.147 14.8911 138.146 0.385982 107.244 0.385982Z" fill="#FE6900"/>
<g opacity="0.5">
<path opacity="0.5" d="M217.753 178.494C217.752 167.403 216.017 156.38 212.613 145.826L204.153 119.548C204.153 119.111 204.153 118.68 204.153 118.249C204.414 101.406 191.307 93.0028 186.259 93.9137C181.091 94.8459 166.75 87.6428 166.75 87.6428V87.8405C165.767 86.7068 164.88 85.4926 164.099 84.2107C166.577 82.4032 168.669 80.1178 170.252 77.4889C171.835 74.86 172.878 71.9406 173.319 68.9023C173.76 65.864 173.59 62.7682 172.819 59.7966C172.048 56.8251 170.692 54.0379 168.83 51.5989C170.38 50.4323 171.562 48.8438 172.235 47.0228C173.406 43.7248 172.51 39.9609 170.607 37.0231C169.797 35.7967 168.851 34.6666 167.786 33.6546C166.174 32.0545 164.413 30.612 162.527 29.3468C157.824 26.0842 152.656 23.2807 147.016 22.2849C146.04 22.0541 145.024 22.0541 144.048 22.2849C143.2 22.6273 142.394 23.0631 141.643 23.5843C137.78 25.7876 132.971 24.8343 128.515 24.6012C124.059 24.3682 118.645 25.6182 117.235 29.8059C116.797 31.0982 116.826 32.4964 116.53 33.8241C115.825 37.0725 113.322 39.5936 111.39 42.2983C109.458 45.003 108.013 48.6541 109.62 51.5918C110.17 52.5805 111.03 53.4915 111.03 54.6214C111.03 55.4335 110.551 56.1609 110.325 56.9377C109.839 58.7031 110.755 60.4686 112.165 61.7468C112.773 62.403 113.488 62.9499 114.28 63.364C116.515 64.508 119.089 64.8611 121.366 65.9204C122.503 66.4551 123.546 67.1705 124.454 68.039C125.567 69.2059 126.437 70.583 127.013 72.09C127.589 73.5971 127.86 75.2039 127.81 76.8169L128.283 76.8663C128.283 77.0076 128.283 77.1417 128.283 77.283C128.776 77.3395 129.298 77.3889 129.813 77.4101C130.553 78.6072 131.4 79.7347 132.344 80.7786C132.184 81.3812 132.003 81.9933 131.801 82.6147C130.144 83.7658 116.593 92.805 101.181 90.63C84.7319 88.3066 75.3266 160.338 75.3266 160.338C74.7169 164.457 74.42 168.617 74.4382 172.781C74.3677 183.374 76.5886 197.236 88.9622 195.195L95.5403 193.027V228.655C95.5403 228.655 96.478 238.414 93.1925 244.897C89.907 251.38 103.536 249.078 103.536 249.078C103.536 249.078 104.057 249.621 105.016 250.547L104.713 251.401L105.115 251.811C103.322 257.948 100.906 263.886 97.9022 269.529L98.29 269.727C98.0432 270.2 97.9022 270.433 97.9022 270.433C97.9022 270.433 102.964 273.025 109.93 276.365C115.528 295.319 127.782 339.216 123.749 347.577L123.862 347.817C124.616 349.385 128.833 358.629 127.98 367.096C127.211 374.666 137.674 409.065 141.58 421.557L139.733 421.932L146.311 445.631L144.901 460.97C144.901 460.97 136.912 482.346 155.709 478.166C174.506 473.985 169.338 456.789 169.338 456.789L169.81 421.932C169.81 421.932 167.998 420.922 165.763 419.954C164.226 415.795 160.877 405.965 160.877 399.164C160.877 390.337 154.764 352.224 154.764 352.224V352.146V351.998V351.955L154.729 351.447V351.362C154.729 350.889 154.651 350.239 154.595 349.448V349.406C153.89 339.103 151.775 304.097 153.319 285.849C154.677 284.922 156.089 284.077 157.549 283.321C162.125 294.902 173.92 326.194 173.166 339.322C172.228 355.564 172.933 342.81 173.166 340.734C173.236 340.091 173.286 340.868 173.307 342.612C173.307 342.93 173.307 343.283 173.307 343.658C173.307 344.032 173.307 344.449 173.307 344.879C173.307 345.31 173.307 345.776 173.307 346.292C173.307 346.537 173.307 346.786 173.307 347.04C173.307 347.549 173.307 348.081 173.307 348.636C173.307 348.914 173.307 349.197 173.307 349.484C173.307 350.896 173.307 352.464 173.258 354.095C173.258 354.42 173.258 354.75 173.258 355.084C173.258 356.08 173.258 357.096 173.208 358.127C173.208 359.54 173.152 360.91 173.124 362.329C173.053 365.507 172.962 368.72 172.849 371.729C172.849 372.063 172.837 372.395 172.813 372.724C172.79 373.383 172.764 374.029 172.736 374.659C172.708 375.29 172.679 375.907 172.651 376.51C172.623 377.108 172.593 377.689 172.56 378.254C172.524 378.918 172.482 379.553 172.447 380.161L169.895 379.793L169.352 385.669C168.496 394.997 169.7 404.4 172.877 413.21C173.751 415.625 174.428 417.624 174.576 418.337C175.048 420.661 174.576 437.404 174.576 437.404C174.576 437.404 177.396 459.247 190.559 455.059C196.482 453.173 199.358 447.439 200.733 441.691C202.259 435.027 201.69 428.054 199.105 421.727C197.236 417.024 195.326 410.428 196.672 405.329C199.02 396.502 199.02 383.953 199.02 383.953L197.568 383.748C197.93 383.059 198.257 382.352 198.548 381.629C198.548 381.629 198.075 349.561 202.306 345.381C204.632 343.079 204.421 337.549 203.716 333.03C202.708 326.489 202.472 319.852 203.011 313.256C203.3 309.859 203.716 306.901 204.202 305.848C205.443 303.391 206.684 278.618 201.192 266.697L202.32 266.344L202.143 265.468L202.32 265.412C203.148 267.627 204.089 269.798 205.14 271.916C205.417 272.134 205.736 272.292 206.078 272.382C221.3 269.705 221.913 255.476 221.067 247.708C221.708 248.018 222.061 248.216 222.061 248.216L223.471 227.737C224.916 224.467 225.452 220.293 225.417 215.781C225.48 199.652 217.753 178.494 217.753 178.494ZM200.973 236.705C199.93 227.786 198.484 219.389 198.484 219.389L191.434 194.291V185.153L202.616 226.96L200.973 236.705Z" fill="url(#paint0_linear_1_551)"/>
</g>
<path d="M169.274 373.798L168.752 379.539C167.929 388.662 169.096 397.854 172.172 406.48C173.011 408.846 173.667 410.795 173.808 411.494C174.259 413.768 173.808 430.116 173.808 430.116C173.808 430.116 176.529 451.465 189.227 447.376C194.938 445.54 197.687 439.925 199.041 434.311C200.509 427.8 199.958 420.995 197.462 414.806C195.657 410.209 193.81 403.747 195.114 398.783C197.384 390.153 197.384 377.894 197.384 377.894L169.274 373.798Z" fill="#5A5773"/>
<path d="M155.674 275.242C155.674 275.242 173.356 318.39 172.447 334.279C171.537 350.169 172.221 337.683 172.447 335.642C172.849 332.006 172.447 375.189 171.086 380.132C171.086 380.132 189.678 393.755 196.933 375.592C196.933 375.592 196.482 344.258 200.557 340.169C202.799 337.923 202.581 332.514 201.918 328.1C200.94 321.716 200.703 315.239 201.213 308.8C201.488 305.481 201.868 302.557 202.362 301.562C203.723 298.836 205.083 267.954 196.919 259.324L155.674 275.242Z" fill="#605D82"/>
<path opacity="0.1" d="M173.356 380.154C174.717 375.161 175.119 332.006 174.717 335.664C174.491 337.705 173.808 350.197 174.717 334.301C175.627 318.404 157.944 275.263 157.944 275.263L197.504 260.024C197.321 259.791 197.131 259.572 196.94 259.367L155.681 275.263C155.681 275.263 173.363 318.411 172.454 334.301C171.544 350.19 172.228 337.705 172.454 335.664C172.856 332.027 172.454 375.21 171.093 380.154C171.093 380.154 178.517 385.591 185.815 385.012C179.321 384.525 173.356 380.154 173.356 380.154Z" fill="black"/>
<path d="M140.254 415.124L146.6 438.287L145.239 453.272C145.239 453.272 137.533 474.161 155.667 470.073C173.801 465.984 168.816 449.184 168.816 449.184L169.267 415.124C169.267 415.124 162.012 411.035 158.839 411.494C155.667 411.953 140.254 415.124 140.254 415.124Z" fill="#5A5773"/>
<path d="M108.971 264.346C108.971 264.346 129.827 332.013 124.842 342.457C124.842 342.457 129.827 352.45 128.924 361.524C128.022 370.599 143.434 419.199 143.434 419.199L166.108 415.11C166.108 415.11 160.665 401.488 160.665 392.858C160.665 384.228 154.771 346.956 154.771 346.956C154.771 346.956 149.787 278.83 155.681 271.563L108.971 264.346Z" fill="#605D82"/>
<g opacity="0.1">
<path opacity="0.1" d="M153.918 277.099C150.16 292.523 154.313 349.279 154.313 349.279C154.313 349.279 160.207 386.516 160.207 395.181C160.207 401.77 163.373 411.261 164.875 415.385L166.101 415.167C166.101 415.167 160.658 401.544 160.658 392.915C160.658 384.285 154.764 347.012 154.764 347.012C154.764 347.012 150.971 295.143 153.918 277.099Z" fill="black"/>
<path opacity="0.1" d="M124.842 342.457L124.955 342.69C124.99 342.457 125.025 342.21 125.047 341.984C124.986 342.145 124.918 342.303 124.842 342.457V342.457Z" fill="black"/>
<path opacity="0.1" d="M154.651 273.794C154.857 273.011 155.204 272.272 155.674 271.612L108.971 264.346C108.971 264.346 109.246 265.228 109.719 266.803L154.651 273.794Z" fill="black"/>
</g>
<path d="M217.788 239.82C217.788 239.82 224.592 265.243 204.188 268.887C203.857 268.8 203.547 268.646 203.278 268.435C203.278 268.435 191.49 245.272 200.557 236.19L217.788 239.82Z" fill="#FAC3CA"/>
<path d="M134.36 70.8921C134.36 70.8921 135.721 89.9592 120.76 99.0479C105.799 108.137 152.487 133.107 152.487 133.107L176.973 94.048C176.973 94.048 166.553 95.3969 160.207 77.2478L134.36 70.8921Z" fill="#FAC3CA"/>
<path opacity="0.1" d="M124.384 100.397C124.384 100.397 147.509 148.538 168.365 103.123L200.557 262.976C200.557 262.976 150.675 278.42 150.231 285.687C149.787 292.953 99.9116 267.072 99.9116 267.072C99.9116 267.072 110.79 247.086 108.076 234.827C105.362 222.568 124.384 100.397 124.384 100.397Z" fill="black"/>
<path d="M124.384 99.4856C124.384 99.4856 147.509 147.627 168.365 102.211L200.557 262.072C200.557 262.072 150.675 277.516 150.231 284.783C149.787 292.049 99.9116 266.16 99.9116 266.16C99.9116 266.16 110.79 246.175 108.076 233.916C105.362 221.656 124.384 99.4856 124.384 99.4856Z" fill="#E1E7EF"/>
<path d="M147.058 427.843C147.058 427.843 141.164 414.672 154.764 414.672C168.365 414.672 166.101 426.48 166.101 426.48L147.058 427.843Z" fill="#5A5773"/>
<path d="M177.89 393.776C177.89 393.776 172.447 379.695 186.054 379.243C199.662 378.791 192.858 391.954 192.858 391.954L177.89 393.776Z" fill="#5A5773"/>
<path opacity="0.1" d="M166.327 89.2529C166.327 89.2529 180.153 96.3148 185.145 95.3826C190.136 94.4505 203.279 103.101 202.376 120.361L210.569 146.108C213.846 156.432 215.511 167.202 215.504 178.035V178.035C215.504 178.035 227.292 210.732 220.947 225.265L219.586 245.25C219.586 245.25 209.159 239.346 198.273 241.161L201.015 224.841L188.747 178.508L168.343 129.004L166.327 89.2529Z" fill="black"/>
<path d="M166.327 88.3562C166.327 88.3562 180.153 95.4181 185.145 94.4859C190.136 93.5538 203.279 102.205 202.376 119.464L210.569 145.212C213.846 155.536 215.511 166.305 215.504 177.138V177.138C215.504 177.138 227.292 209.835 220.947 224.368L219.586 244.353C219.586 244.353 209.159 238.45 198.273 240.265L200.994 223.916L188.747 177.597L168.365 128.093L166.327 88.3562Z" fill="#67647E"/>
<path opacity="0.1" d="M189.227 143.538V194.856L196.031 219.382C196.031 219.382 200.564 246.175 199.203 254.353C197.843 262.531 176.078 264.346 170.184 257.531C164.289 250.716 167.462 192.561 167.462 192.561L166.327 107.43L167.237 104.704L189.227 143.538Z" fill="black"/>
<path d="M190.158 141.271V192.59L196.961 217.115C196.961 217.115 201.495 243.908 200.134 252.086C198.773 260.264 177.008 262.079 171.114 255.264C165.22 248.449 168.393 190.294 168.393 190.294L167.258 105.142L190.158 141.271Z" fill="#67647E"/>
<path opacity="0.1" d="M98.7694 183.96L113.279 229.156L106.476 248.456C106.476 248.456 138.668 282.516 159.072 266.168C159.072 266.168 161.342 196.679 156.802 180.33C152.261 163.982 130.504 109.005 130.504 109.005L125.998 94.4929L101.97 108.115L98.7694 183.96Z" fill="black"/>
<path d="M97.6343 181.686V226.176C97.6343 226.176 98.5438 235.717 95.3641 242.072C92.1843 248.428 105.34 246.161 105.34 246.161C105.34 246.161 137.533 280.221 157.937 263.872C157.937 263.872 160.207 194.383 155.667 178.035C151.126 161.687 129.368 106.71 129.368 106.71L124.835 92.1765L100.807 105.799L97.6343 181.686Z" fill="#67647E"/>
<path opacity="0.1" d="M132.774 84.2744C132.774 84.2744 118.948 94.493 103.077 92.219C87.2067 89.9451 78.1398 160.345 78.1398 160.345C78.1398 160.345 72.2456 196.679 91.2889 193.501L133.458 179.419C133.458 179.419 124.391 169.879 125.752 157.619L105.34 165.79L106.257 126.738L132.774 84.2744Z" fill="black"/>
<path opacity="0.1" d="M79.0422 159.434C79.0422 159.434 73.148 195.768 92.1913 192.59L134.36 178.508C134.36 178.508 125.293 168.975 126.654 156.708L106.257 164.886L79.0422 159.434Z" fill="black"/>
<path d="M125.653 161.496C125.653 161.496 139.803 142.86 150.224 151.807C160.644 160.755 129.39 177.152 129.39 177.152L125.653 161.496Z" fill="#FAC3CA"/>
<path d="M132.774 83.3633C132.774 83.3633 118.948 93.5818 103.077 91.3079C87.2067 89.034 78.1398 159.434 78.1398 159.434C78.1398 159.434 72.2456 195.767 91.2889 192.59L133.458 178.508C133.458 178.508 124.391 168.968 125.752 156.708L105.34 164.886L106.257 125.826L129.383 106.759L132.774 83.3633Z" fill="#67647E"/>
<path opacity="0.1" d="M160.658 78.1377L134.811 71.782C134.811 71.782 136.158 73.3074 134.586 79.2747C138.746 84.0556 143.857 90.4042 150.682 90.4042C155.566 90.4134 160.321 88.8348 164.233 85.9058C162.773 83.4489 161.575 80.8453 160.658 78.1377Z" fill="black"/>
<path d="M150.231 89.5002C162.753 89.5002 172.905 79.3322 172.905 66.7892C172.905 54.2462 162.753 44.0781 150.231 44.0781C137.708 44.0781 127.556 54.2462 127.556 66.7892C127.556 79.3322 137.708 89.5002 150.231 89.5002Z" fill="#FAC3CA"/>
<path opacity="0.1" d="M158.825 56.9306C164.085 56.0337 169.866 53.6962 171.629 48.654C172.757 45.4267 171.897 41.7546 170.057 38.8804C168.217 36.0062 165.509 33.7958 162.717 31.8185C158.184 28.6265 153.185 25.8865 147.728 24.9261C146.787 24.7007 145.806 24.7007 144.865 24.9261C144.047 25.2615 143.269 25.6879 142.546 26.1972C138.816 28.3511 134.177 27.4189 129.855 27.1929C125.533 26.967 120.351 28.1887 118.99 32.2775C118.567 33.5416 118.595 34.9045 118.285 36.2039C117.58 39.3818 115.19 41.8534 113.35 44.5016C111.51 47.1499 110.093 50.7302 111.644 53.5832C112.172 54.5507 113.054 55.4405 113.054 56.5422C112.918 57.3252 112.681 58.0872 112.349 58.809C111.707 61.1536 113.575 63.5193 115.733 64.6351C117.89 65.7509 120.372 66.0969 122.572 67.135C124.631 68.1526 126.355 69.7412 127.538 71.7117C128.722 73.6822 129.315 75.9517 129.249 78.2504C131.251 78.4835 133.585 78.6035 134.938 77.1064C135.545 76.4355 135.841 75.5387 136.391 74.8254C137.096 73.8932 138.196 73.3424 139.098 72.5939C143.843 68.6886 140.473 63.2933 143.159 59.0845C144.569 56.9164 146.811 57.5803 149.082 57.6156C152.344 57.692 155.606 57.4627 158.825 56.9306V56.9306Z" fill="black"/>
<path d="M158.374 56.4787C163.634 55.5818 169.415 53.2443 171.178 48.2021C172.306 44.9748 171.446 41.3027 169.606 38.4285C167.765 35.5543 165.058 33.3439 162.266 31.3666C157.733 28.1746 152.734 25.4346 147.277 24.4742C146.336 24.2488 145.355 24.2488 144.414 24.4742C143.596 24.8096 142.818 25.236 142.095 25.7453C138.365 27.8992 133.726 26.967 129.404 26.741C125.082 26.5151 119.9 27.7368 118.539 31.8256C118.116 33.0897 118.144 34.4526 117.834 35.752C117.129 38.9299 114.739 41.4015 112.899 44.0497C111.058 46.698 109.641 50.2783 111.192 53.1313C111.721 54.0988 112.602 54.9886 112.602 56.0903C112.466 56.8733 112.229 57.6353 111.897 58.3571C111.256 60.7017 113.124 63.0674 115.282 64.1832C117.439 65.299 119.921 65.645 122.121 66.6831C124.188 67.6997 125.919 69.2914 127.107 71.2676C128.295 73.2439 128.889 75.5211 128.819 77.8268C130.821 78.0598 133.155 78.1799 134.508 76.6828C135.115 76.0119 135.411 75.115 135.961 74.4018C136.666 73.4696 137.766 72.9188 138.668 72.1702C143.413 68.265 140.043 62.8697 142.729 58.6608C144.139 56.4928 146.381 57.1566 148.652 57.1919C151.907 57.2577 155.162 57.0189 158.374 56.4787Z" fill="#4A4347"/>
<path opacity="0.1" d="M185.822 132.867C185.822 132.867 190.806 158.756 188.543 168.749C187.16 174.562 187.365 180.64 189.135 186.347" fill="black"/>
<path opacity="0.1" d="M105.242 143.764C105.242 143.764 103.07 161.023 106.687 164.653Z" fill="black"/>
<path d="M231.847 356.461C232.127 356.461 232.396 356.349 232.595 356.151C232.793 355.952 232.905 355.683 232.905 355.402C232.905 355.121 232.793 354.851 232.595 354.653C232.396 354.454 232.127 354.342 231.847 354.342C231.567 354.342 231.298 354.454 231.099 354.653C230.901 354.851 230.789 355.121 230.789 355.402C230.789 355.683 230.901 355.952 231.099 356.151C231.298 356.349 231.567 356.461 231.847 356.461Z" fill="black"/>
<g opacity="0.5">
<path opacity="0.5" d="M557.487 233.054V232.468L365.122 84.3095C365.001 84.2195 364.854 84.1709 364.703 84.1709C364.551 84.1709 364.404 84.2195 364.283 84.3095L171.911 232.468V462.121H172.278V462.488H557.861V232.835L557.487 233.054Z" fill="url(#paint1_linear_1_551)"/>
</g>
<path d="M550.845 455.716H178.581V233.972L364.713 90.616L550.845 233.972V455.716Z" fill="white"/>
<path d="M537.45 442.574H191.977V236.79L364.713 103.751L537.45 236.79V442.574Z" fill="#E0E0E0"/>
<path d="M423.314 100.676L212.576 156.013L282.842 424.473L493.58 369.137L423.314 100.676Z" fill="#FE6900"/>
<path d="M474.7 141.462H256.841V418.994H474.7V141.462Z" fill="#F5F5F5"/>
<path opacity="0.05" d="M180.343 234.325L366.476 345.197L180.343 456.069V234.325Z" fill="black"/>
<path d="M178.933 234.325L365.066 345.197L178.933 456.069V234.325Z" fill="white"/>
<path opacity="0.05" d="M549.788 234.325L363.656 345.197L549.788 456.069V234.325Z" fill="black"/>
<path d="M551.198 234.325L365.066 345.197L551.198 456.069V234.325Z" fill="white"/>
<path opacity="0.05" d="M178.933 452.538L365.066 307.063L551.198 452.538H178.933Z" fill="black"/>
<path d="M178.933 456.069L365.066 310.594L551.198 456.069H178.933Z" fill="white"/>
<path d="M216.759 472.912C216.759 472.912 207.41 441.133 218.515 417.73C223.233 407.947 224.655 396.895 222.569 386.234C221.539 381.181 220.05 376.234 218.12 371.453" stroke="#535461" stroke-width="2" stroke-miterlimit="10"/>
<path d="M225.022 356.666C225.022 360.564 217.972 371.856 217.972 371.856C217.972 371.856 210.921 360.557 210.921 356.666C210.921 354.793 211.664 352.997 212.986 351.672C214.308 350.348 216.102 349.604 217.972 349.604C219.842 349.604 221.635 350.348 222.957 351.672C224.279 352.997 225.022 354.793 225.022 356.666Z" fill="#FE6900"/>
<path d="M236.691 378.247C234.575 381.517 222.533 387.166 222.533 387.166C222.533 387.166 222.752 373.847 224.867 370.578C225.921 369.099 227.505 368.084 229.287 367.744C231.069 367.405 232.914 367.767 234.437 368.754C235.96 369.742 237.044 371.28 237.464 373.048C237.883 374.816 237.607 376.678 236.691 378.247Z" fill="#FE6900"/>
<path d="M236.155 415.117C232.679 416.868 219.438 415.661 219.438 415.661C219.438 415.661 226.341 404.277 229.809 402.526C230.64 402.06 231.555 401.768 232.501 401.667C233.447 401.565 234.404 401.657 235.313 401.935C236.223 402.214 237.067 402.674 237.795 403.288C238.522 403.902 239.118 404.657 239.547 405.508C239.975 406.359 240.227 407.287 240.288 408.238C240.349 409.189 240.217 410.143 239.9 411.041C239.583 411.939 239.088 412.764 238.444 413.466C237.8 414.168 237.022 414.732 236.155 415.124V415.117Z" fill="#FE6900"/>
<path d="M229.499 442.934C226.369 445.25 213.114 446.295 213.114 446.295C213.114 446.295 217.993 433.909 221.123 431.592C222.629 430.586 224.465 430.198 226.248 430.51C228.032 430.822 229.628 431.809 230.704 433.267C231.781 434.725 232.257 436.542 232.032 438.342C231.808 440.142 230.901 441.786 229.499 442.934V442.934Z" fill="#FE6900"/>
<path d="M207.72 387.914C210.54 390.626 223.506 393.444 223.506 393.444C223.506 393.444 220.327 380.514 217.535 377.802C216.176 376.6 214.408 375.967 212.597 376.036C210.786 376.105 209.071 376.87 207.808 378.173C206.545 379.475 205.831 381.214 205.815 383.029C205.799 384.845 206.481 386.597 207.72 387.922V387.914Z" fill="#FE6900"/>
<path d="M200.346 420.548C203.821 422.299 217.062 421.091 217.062 421.091C217.062 421.091 210.16 409.708 206.691 407.956C205.035 407.207 203.153 407.127 201.439 407.733C199.726 408.34 198.312 409.586 197.493 411.211C196.674 412.836 196.514 414.716 197.046 416.457C197.577 418.198 198.759 419.666 200.346 420.555V420.548Z" fill="#FE6900"/>
<path d="M197.525 453.244C200.656 455.561 213.911 456.606 213.911 456.606C213.911 456.606 209.032 444.219 205.901 441.903C205.162 441.298 204.308 440.849 203.391 440.584C202.473 440.319 201.512 440.244 200.565 440.362C199.617 440.481 198.704 440.791 197.88 441.273C197.055 441.756 196.338 442.401 195.77 443.17C195.202 443.939 194.796 444.815 194.577 445.746C194.357 446.676 194.329 447.642 194.493 448.584C194.657 449.526 195.01 450.425 195.532 451.226C196.053 452.027 196.731 452.714 197.525 453.244V453.244Z" fill="#FE6900"/>
<path opacity="0.5" d="M356.958 154.173H269.532V161.235H356.958V154.173Z" fill="#FE6900"/>
<path opacity="0.5" d="M458.484 182.421H269.532V189.483H458.484V182.421Z" fill="#FE6900"/>
<path opacity="0.5" d="M458.484 200.781H269.532V207.843H458.484V200.781Z" fill="#FE6900"/>
<path opacity="0.4" d="M458.484 219.142H269.532V226.204H458.484V219.142Z" fill="#FE6900"/>
<path opacity="0.4" d="M458.484 237.503H269.532V244.565H458.484V237.503Z" fill="#FE6900"/>
<path opacity="0.3" d="M377.404 255.864H269.532V262.926H377.404V255.864Z" fill="#FE6900"/>
<path opacity="0.3" d="M416.887 274.225H269.532V281.287H416.887V274.225Z" fill="#FE6900"/>
</g>
<defs>
<linearGradient id="paint0_linear_1_551" x1="74.4453" y1="250.448" x2="225.339" y2="250.448" gradientUnits="userSpaceOnUse">
<stop stop-color="#808080" stop-opacity="0.25"/>
<stop offset="0.54" stop-color="#808080" stop-opacity="0.12"/>
<stop offset="1" stop-color="#808080" stop-opacity="0.1"/>
</linearGradient>
<linearGradient id="paint1_linear_1_551" x1="245956" y1="280247" x2="245956" y2="77563.5" gradientUnits="userSpaceOnUse">
<stop stop-color="#808080" stop-opacity="0.25"/>
<stop offset="0.54" stop-color="#808080" stop-opacity="0.12"/>
<stop offset="1" stop-color="#808080" stop-opacity="0.1"/>
</linearGradient>
<clipPath id="clip0_1_551">
<rect width="677" height="514" fill="white" transform="translate(0.5 0.32959)"/>
</clipPath>
</defs>
</svg>
